<svg id="Capa_1" data-name="Capa 1" xmlns="http://www.w3.org/2000/svg" viewBox="0 0 291.22 291.22"><defs><style>.cls-1{fill:#4b22f4;}.cls-2{fill:#fff;}</style></defs><rect class="cls-1" width="291.22" height="291.22" rx="19.91"/><path class="cls-2" d="M356.38,386.65h0a64.17,64.17,0,0,1-64.17-64.18v-84.2h64.17Z" transform="translate(-250.39 -160.39)"/><path class="cls-2" d="M435.62,386.61h0V238.23h64.17v84.2A64.17,64.17,0,0,1,435.62,386.61Z" transform="translate(-250.39 -160.39)"/><path class="cls-2" d="M432.19,310.4h0c-22.85,19-57.63,16.82-77.67-4.82l-62.3-67.3h0c22.85-19,57.63-16.82,77.67,4.83Z" transform="translate(-250.39 -160.39)"/><path class="cls-2" d="M359.81,310.4h0c22.85,19,57.63,16.82,77.67-4.82l62.3-67.3h0c-22.85-19-57.63-16.82-77.67,4.83Z" transform="translate(-250.39 -160.39)"/></svg>