<svg id="Capa_1" data-name="Capa 1" xmlns="http://www.w3.org/2000/svg" viewBox="0 0 809.68 148.57"><defs><style>.cls-1,.cls-2{fill:#4b22f4;}.cls-2{font-size:115.48px;font-family:Poppins-Medium, Poppins;font-weight:500;}</style></defs><path class="cls-1" d="M0,28H36.95a0,0,0,0,1,0,0v85.42a0,0,0,0,1,0,0h0A36.95,36.95,0,0,1,0,76.52V28A0,0,0,0,1,0,28Z"/><path class="cls-1" d="M82.56,28H119.5a0,0,0,0,1,0,0V76.5a36.95,36.95,0,0,1-36.95,36.95h0a0,0,0,0,1,0,0V28A0,0,0,0,1,82.56,28Z"/><path class="cls-1" d="M215.74,535.29h0c-13.16,10.92-33.17,9.68-44.71-2.78l-35.87-38.74h0c13.16-10.93,33.18-9.68,44.71,2.78Z" transform="translate(-135.16 -465.72)"/><path class="cls-1" d="M174.08,535.29h0c13.16,10.92,33.18,9.68,44.71-2.78l35.87-38.74h0c-13.16-10.93-33.17-9.68-44.71,2.78Z" transform="translate(-135.16 -465.72)"/><text class="cls-2" transform="translate(135.96 97.99)">market ads</text></svg>